<mxfile host="Electron" agent="Mozilla/5.0 (Windows NT 10.0; Win64; x64) AppleWebKit/537.36 (KHTML, like Gecko) draw.io/26.0.4 Chrome/128.0.6613.186 Electron/32.2.5 Safari/537.36" version="26.0.4">
  <diagram id="C5RBs43oDa-KdzZeNtuy" name="Page-1">
    <mxGraphModel dx="1418" dy="828" grid="1" gridSize="10" guides="1" tooltips="1" connect="1" arrows="1" fold="1" page="1" pageScale="1" pageWidth="827" pageHeight="1169" math="0" shadow="0">
      <root>
        <mxCell id="WIyWlLk6GJQsqaUBKTNV-0" />
        <mxCell id="WIyWlLk6GJQsqaUBKTNV-1" parent="WIyWlLk6GJQsqaUBKTNV-0" />
        <mxCell id="3FjFDQQiQCJpc581j3xB-0" value="" style="whiteSpace=wrap;html=1;strokeWidth=0;strokeColor=none;" parent="WIyWlLk6GJQsqaUBKTNV-1" vertex="1">
          <mxGeometry x="30" y="30" width="660" height="2630" as="geometry" />
        </mxCell>
        <mxCell id="keg-BaF5ITObghMRIlcJ-24" value="&quot;Spiel beenden&quot;&lt;div&gt;sagen&lt;/div&gt;" style="strokeWidth=2;html=1;shape=mxgraph.flowchart.terminator;whiteSpace=wrap;" parent="WIyWlLk6GJQsqaUBKTNV-1" vertex="1">
          <mxGeometry x="250" y="2590" width="120" height="60" as="geometry" />
        </mxCell>
        <mxCell id="IYIC5ttq0z-l40l8aOWY-0" value="Hands vs Hardware starten" style="strokeWidth=2;html=1;shape=mxgraph.flowchart.terminator;whiteSpace=wrap;" parent="WIyWlLk6GJQsqaUBKTNV-1" vertex="1">
          <mxGeometry x="100" y="40" width="120" height="60" as="geometry" />
        </mxCell>
        <mxCell id="IYIC5ttq0z-l40l8aOWY-3" value="Access Key per Link erhalten" style="rounded=1;whiteSpace=wrap;html=1;absoluteArcSize=1;arcSize=14;strokeWidth=2;" parent="WIyWlLk6GJQsqaUBKTNV-1" vertex="1">
          <mxGeometry x="270" y="170.5" width="100" height="60" as="geometry" />
        </mxCell>
        <mxCell id="IYIC5ttq0z-l40l8aOWY-4" value="&lt;font style=&quot;font-size: 11px;&quot;&gt;Picovoice&amp;nbsp;&lt;/font&gt;&lt;div&gt;&lt;font style=&quot;font-size: 11px;&quot;&gt;Access Key bekannt?&lt;/font&gt;&lt;/div&gt;" style="strokeWidth=2;html=1;shape=mxgraph.flowchart.decision;whiteSpace=wrap;aspect=fixed;" parent="WIyWlLk6GJQsqaUBKTNV-1" vertex="1">
          <mxGeometry x="115.5" y="156" width="89" height="89" as="geometry" />
        </mxCell>
        <mxCell id="IYIC5ttq0z-l40l8aOWY-5" value="Access Key eingeben" style="rounded=1;whiteSpace=wrap;html=1;absoluteArcSize=1;arcSize=14;strokeWidth=2;" parent="WIyWlLk6GJQsqaUBKTNV-1" vertex="1">
          <mxGeometry x="110" y="300" width="100" height="60" as="geometry" />
        </mxCell>
        <mxCell id="keg-BaF5ITObghMRIlcJ-35" style="edgeStyle=orthogonalEdgeStyle;rounded=0;orthogonalLoop=1;jettySize=auto;html=1;entryX=0.5;entryY=0;entryDx=0;entryDy=0;endArrow=blockThin;endFill=1;" parent="WIyWlLk6GJQsqaUBKTNV-1" source="IYIC5ttq0z-l40l8aOWY-6" target="IYIC5ttq0z-l40l8aOWY-7" edge="1">
          <mxGeometry relative="1" as="geometry" />
        </mxCell>
        <mxCell id="IYIC5ttq0z-l40l8aOWY-6" value="&quot;Spielen&quot; sagen" style="rounded=1;whiteSpace=wrap;html=1;absoluteArcSize=1;arcSize=14;strokeWidth=2;" parent="WIyWlLk6GJQsqaUBKTNV-1" vertex="1">
          <mxGeometry x="110" y="840" width="100" height="60" as="geometry" />
        </mxCell>
        <mxCell id="keg-BaF5ITObghMRIlcJ-36" style="edgeStyle=orthogonalEdgeStyle;rounded=0;orthogonalLoop=1;jettySize=auto;html=1;entryX=0.5;entryY=0;entryDx=0;entryDy=0;endArrow=blockThin;endFill=1;" parent="WIyWlLk6GJQsqaUBKTNV-1" source="IYIC5ttq0z-l40l8aOWY-7" target="IYIC5ttq0z-l40l8aOWY-8" edge="1">
          <mxGeometry relative="1" as="geometry" />
        </mxCell>
        <mxCell id="IYIC5ttq0z-l40l8aOWY-7" value="&quot;Schere-Stein-Papier&quot; sagen" style="rounded=1;whiteSpace=wrap;html=1;absoluteArcSize=1;arcSize=14;strokeWidth=2;" parent="WIyWlLk6GJQsqaUBKTNV-1" vertex="1">
          <mxGeometry x="110" y="960" width="100" height="60" as="geometry" />
        </mxCell>
        <mxCell id="IYIC5ttq0z-l40l8aOWY-8" value="Gew체nschte Geste ausw채hlen" style="rounded=1;whiteSpace=wrap;html=1;absoluteArcSize=1;arcSize=14;strokeWidth=2;" parent="WIyWlLk6GJQsqaUBKTNV-1" vertex="1">
          <mxGeometry x="110" y="1080" width="100" height="60" as="geometry" />
        </mxCell>
        <mxCell id="keg-BaF5ITObghMRIlcJ-38" style="edgeStyle=orthogonalEdgeStyle;rounded=0;orthogonalLoop=1;jettySize=auto;html=1;entryX=0;entryY=0.5;entryDx=0;entryDy=0;endArrow=blockThin;endFill=1;" parent="WIyWlLk6GJQsqaUBKTNV-1" source="IYIC5ttq0z-l40l8aOWY-9" target="keg-BaF5ITObghMRIlcJ-3" edge="1">
          <mxGeometry relative="1" as="geometry" />
        </mxCell>
        <mxCell id="IYIC5ttq0z-l40l8aOWY-9" value="Statistik ansehen?" style="strokeWidth=2;html=1;shape=mxgraph.flowchart.decision;whiteSpace=wrap;aspect=fixed;" parent="WIyWlLk6GJQsqaUBKTNV-1" vertex="1">
          <mxGeometry x="115.5" y="1201" width="89" height="89" as="geometry" />
        </mxCell>
        <mxCell id="keg-BaF5ITObghMRIlcJ-41" style="edgeStyle=orthogonalEdgeStyle;rounded=0;orthogonalLoop=1;jettySize=auto;html=1;entryX=0.5;entryY=0;entryDx=0;entryDy=0;endArrow=blockThin;endFill=1;" parent="WIyWlLk6GJQsqaUBKTNV-1" source="IYIC5ttq0z-l40l8aOWY-10" target="keg-BaF5ITObghMRIlcJ-5" edge="1">
          <mxGeometry relative="1" as="geometry" />
        </mxCell>
        <mxCell id="IYIC5ttq0z-l40l8aOWY-10" value="weiter&lt;span style=&quot;background-color: transparent; color: light-dark(rgb(0, 0, 0), rgb(255, 255, 255));&quot;&gt;&amp;nbsp;&lt;/span&gt;&lt;div&gt;spielen?&lt;/div&gt;" style="strokeWidth=2;html=1;shape=mxgraph.flowchart.decision;whiteSpace=wrap;aspect=fixed;" parent="WIyWlLk6GJQsqaUBKTNV-1" vertex="1">
          <mxGeometry x="424.5" y="1201" width="89" height="89" as="geometry" />
        </mxCell>
        <mxCell id="keg-BaF5ITObghMRIlcJ-30" style="edgeStyle=orthogonalEdgeStyle;rounded=0;orthogonalLoop=1;jettySize=auto;html=1;entryX=0;entryY=0.5;entryDx=0;entryDy=0;endArrow=blockThin;endFill=1;" parent="WIyWlLk6GJQsqaUBKTNV-1" source="keg-BaF5ITObghMRIlcJ-0" target="keg-BaF5ITObghMRIlcJ-1" edge="1">
          <mxGeometry relative="1" as="geometry" />
        </mxCell>
        <mxCell id="keg-BaF5ITObghMRIlcJ-31" style="edgeStyle=orthogonalEdgeStyle;rounded=0;orthogonalLoop=1;jettySize=auto;html=1;entryX=0.5;entryY=0;entryDx=0;entryDy=0;endArrow=blockThin;endFill=1;" parent="WIyWlLk6GJQsqaUBKTNV-1" source="keg-BaF5ITObghMRIlcJ-0" target="keg-BaF5ITObghMRIlcJ-13" edge="1">
          <mxGeometry relative="1" as="geometry" />
        </mxCell>
        <mxCell id="keg-BaF5ITObghMRIlcJ-0" value="&lt;font style=&quot;font-size: 10px;&quot;&gt;Linksh채&lt;/font&gt;&lt;span style=&quot;font-size: 10px; background-color: transparent; color: light-dark(rgb(0, 0, 0), rgb(255, 255, 255));&quot;&gt;nd-&lt;/span&gt;&lt;div&gt;&lt;span style=&quot;font-size: 10px; background-color: transparent; color: light-dark(rgb(0, 0, 0), rgb(255, 255, 255));&quot;&gt;Modus&amp;nbsp;&lt;/span&gt;&lt;div&gt;&lt;div&gt;&lt;font style=&quot;font-size: 10px;&quot;&gt;&lt;span style=&quot;background-color: transparent; color: light-dark(rgb(0, 0, 0), rgb(255, 255, 255));&quot;&gt;aktivieren?&lt;/span&gt;&lt;/font&gt;&lt;/div&gt;&lt;/div&gt;&lt;/div&gt;" style="strokeWidth=2;html=1;shape=mxgraph.flowchart.decision;whiteSpace=wrap;aspect=fixed;" parent="WIyWlLk6GJQsqaUBKTNV-1" vertex="1">
          <mxGeometry x="115.5" y="420" width="89" height="89" as="geometry" />
        </mxCell>
        <mxCell id="keg-BaF5ITObghMRIlcJ-1" value="Haken bei setzten Linksh채nder-Modus setzten" style="rounded=1;whiteSpace=wrap;html=1;absoluteArcSize=1;arcSize=14;strokeWidth=2;" parent="WIyWlLk6GJQsqaUBKTNV-1" vertex="1">
          <mxGeometry x="270" y="434.5" width="100" height="60" as="geometry" />
        </mxCell>
        <mxCell id="keg-BaF5ITObghMRIlcJ-3" value="&quot;Spiel pausieren&quot; sagen" style="rounded=1;whiteSpace=wrap;html=1;absoluteArcSize=1;arcSize=14;strokeWidth=2;" parent="WIyWlLk6GJQsqaUBKTNV-1" vertex="1">
          <mxGeometry x="270" y="1215.5" width="100" height="60" as="geometry" />
        </mxCell>
        <mxCell id="keg-BaF5ITObghMRIlcJ-5" value="&quot;Spielen&quot; sagen" style="rounded=1;whiteSpace=wrap;html=1;absoluteArcSize=1;arcSize=14;strokeWidth=2;" parent="WIyWlLk6GJQsqaUBKTNV-1" vertex="1">
          <mxGeometry x="419" y="1360" width="100" height="60" as="geometry" />
        </mxCell>
        <mxCell id="keg-BaF5ITObghMRIlcJ-7" value="Best-of-5&lt;div&gt;beendet?&lt;/div&gt;" style="strokeWidth=2;html=1;shape=mxgraph.flowchart.decision;whiteSpace=wrap;aspect=fixed;" parent="WIyWlLk6GJQsqaUBKTNV-1" vertex="1">
          <mxGeometry x="115.5" y="1480" width="89" height="89" as="geometry" />
        </mxCell>
        <mxCell id="keg-BaF5ITObghMRIlcJ-34" style="edgeStyle=orthogonalEdgeStyle;rounded=0;orthogonalLoop=1;jettySize=auto;html=1;entryX=0.5;entryY=0;entryDx=0;entryDy=0;endArrow=blockThin;endFill=1;" parent="WIyWlLk6GJQsqaUBKTNV-1" source="keg-BaF5ITObghMRIlcJ-8" target="IYIC5ttq0z-l40l8aOWY-6" edge="1">
          <mxGeometry relative="1" as="geometry" />
        </mxCell>
        <mxCell id="keg-BaF5ITObghMRIlcJ-8" value="&lt;span style=&quot;font-size: 10px;&quot;&gt;Spiel starten?&lt;/span&gt;" style="strokeWidth=2;html=1;shape=mxgraph.flowchart.decision;whiteSpace=wrap;aspect=fixed;" parent="WIyWlLk6GJQsqaUBKTNV-1" vertex="1">
          <mxGeometry x="115.5" y="690" width="89" height="89" as="geometry" />
        </mxCell>
        <mxCell id="keg-BaF5ITObghMRIlcJ-10" value="&lt;div&gt;weiter&amp;nbsp;&lt;/div&gt;&lt;div&gt;spielen?&lt;/div&gt;" style="strokeWidth=2;html=1;shape=mxgraph.flowchart.decision;whiteSpace=wrap;aspect=fixed;" parent="WIyWlLk6GJQsqaUBKTNV-1" vertex="1">
          <mxGeometry x="115.5" y="1630" width="89" height="89" as="geometry" />
        </mxCell>
        <mxCell id="keg-BaF5ITObghMRIlcJ-47" style="edgeStyle=orthogonalEdgeStyle;rounded=0;orthogonalLoop=1;jettySize=auto;html=1;entryX=0.5;entryY=0;entryDx=0;entryDy=0;endArrow=blockThin;endFill=1;" parent="WIyWlLk6GJQsqaUBKTNV-1" source="keg-BaF5ITObghMRIlcJ-11" target="keg-BaF5ITObghMRIlcJ-18" edge="1">
          <mxGeometry relative="1" as="geometry" />
        </mxCell>
        <mxCell id="keg-BaF5ITObghMRIlcJ-11" value="&quot;Weiter spielen&quot; sagen" style="rounded=1;whiteSpace=wrap;html=1;absoluteArcSize=1;arcSize=14;strokeWidth=2;" parent="WIyWlLk6GJQsqaUBKTNV-1" vertex="1">
          <mxGeometry x="260" y="1794.5" width="100" height="60" as="geometry" />
        </mxCell>
        <mxCell id="keg-BaF5ITObghMRIlcJ-12" value="&quot;Nochmal spielen&quot; sagen" style="rounded=1;whiteSpace=wrap;html=1;absoluteArcSize=1;arcSize=14;strokeWidth=2;" parent="WIyWlLk6GJQsqaUBKTNV-1" vertex="1">
          <mxGeometry x="110" y="1930" width="100" height="60" as="geometry" />
        </mxCell>
        <mxCell id="keg-BaF5ITObghMRIlcJ-13" value="Eingaben best채tigen" style="rounded=1;whiteSpace=wrap;html=1;absoluteArcSize=1;arcSize=14;strokeWidth=2;" parent="WIyWlLk6GJQsqaUBKTNV-1" vertex="1">
          <mxGeometry x="110" y="570" width="100" height="60" as="geometry" />
        </mxCell>
        <mxCell id="keg-BaF5ITObghMRIlcJ-14" value="&quot;Spiel beenden&quot;&lt;div&gt;sagen&lt;/div&gt;" style="strokeWidth=2;html=1;shape=mxgraph.flowchart.terminator;whiteSpace=wrap;" parent="WIyWlLk6GJQsqaUBKTNV-1" vertex="1">
          <mxGeometry x="260" y="704.5" width="120" height="60" as="geometry" />
        </mxCell>
        <mxCell id="keg-BaF5ITObghMRIlcJ-15" value="&quot;Spiel beenden&quot;&lt;div&gt;sagen&lt;/div&gt;" style="strokeWidth=2;html=1;shape=mxgraph.flowchart.terminator;whiteSpace=wrap;" parent="WIyWlLk6GJQsqaUBKTNV-1" vertex="1">
          <mxGeometry x="560" y="1215.5" width="120" height="60" as="geometry" />
        </mxCell>
        <mxCell id="keg-BaF5ITObghMRIlcJ-45" style="edgeStyle=orthogonalEdgeStyle;rounded=0;orthogonalLoop=1;jettySize=auto;html=1;entryX=0;entryY=0.5;entryDx=0;entryDy=0;endArrow=blockThin;endFill=1;" parent="WIyWlLk6GJQsqaUBKTNV-1" source="keg-BaF5ITObghMRIlcJ-16" target="keg-BaF5ITObghMRIlcJ-11" edge="1">
          <mxGeometry relative="1" as="geometry" />
        </mxCell>
        <mxCell id="keg-BaF5ITObghMRIlcJ-46" style="edgeStyle=orthogonalEdgeStyle;rounded=0;orthogonalLoop=1;jettySize=auto;html=1;entryX=0.5;entryY=0;entryDx=0;entryDy=0;endArrow=blockThin;endFill=1;" parent="WIyWlLk6GJQsqaUBKTNV-1" source="keg-BaF5ITObghMRIlcJ-16" target="keg-BaF5ITObghMRIlcJ-12" edge="1">
          <mxGeometry relative="1" as="geometry" />
        </mxCell>
        <mxCell id="keg-BaF5ITObghMRIlcJ-16" value="Endlos-&lt;div&gt;Modus&amp;nbsp;&lt;/div&gt;&lt;div&gt;spielen?&lt;/div&gt;" style="strokeWidth=2;html=1;shape=mxgraph.flowchart.decision;whiteSpace=wrap;aspect=fixed;" parent="WIyWlLk6GJQsqaUBKTNV-1" vertex="1">
          <mxGeometry x="115.5" y="1780" width="89" height="89" as="geometry" />
        </mxCell>
        <mxCell id="keg-BaF5ITObghMRIlcJ-17" value="&quot;Spiel beenden&quot;&lt;div&gt;sagen&lt;/div&gt;" style="strokeWidth=2;html=1;shape=mxgraph.flowchart.terminator;whiteSpace=wrap;" parent="WIyWlLk6GJQsqaUBKTNV-1" vertex="1">
          <mxGeometry x="250" y="1644.5" width="120" height="60" as="geometry" />
        </mxCell>
        <mxCell id="keg-BaF5ITObghMRIlcJ-48" style="edgeStyle=orthogonalEdgeStyle;rounded=0;orthogonalLoop=1;jettySize=auto;html=1;entryX=0.5;entryY=0;entryDx=0;entryDy=0;endArrow=blockThin;endFill=1;" parent="WIyWlLk6GJQsqaUBKTNV-1" source="keg-BaF5ITObghMRIlcJ-18" target="keg-BaF5ITObghMRIlcJ-19" edge="1">
          <mxGeometry relative="1" as="geometry" />
        </mxCell>
        <mxCell id="keg-BaF5ITObghMRIlcJ-18" value="&quot;Schere-Stein-Papier&quot; sagen" style="rounded=1;whiteSpace=wrap;html=1;absoluteArcSize=1;arcSize=14;strokeWidth=2;" parent="WIyWlLk6GJQsqaUBKTNV-1" vertex="1">
          <mxGeometry x="260" y="1930" width="100" height="60" as="geometry" />
        </mxCell>
        <mxCell id="keg-BaF5ITObghMRIlcJ-19" value="Gew체nschte Geste ausw채hlen" style="rounded=1;whiteSpace=wrap;html=1;absoluteArcSize=1;arcSize=14;strokeWidth=2;" parent="WIyWlLk6GJQsqaUBKTNV-1" vertex="1">
          <mxGeometry x="260" y="2050" width="100" height="60" as="geometry" />
        </mxCell>
        <mxCell id="keg-BaF5ITObghMRIlcJ-50" style="edgeStyle=orthogonalEdgeStyle;rounded=0;orthogonalLoop=1;jettySize=auto;html=1;entryX=0.5;entryY=0;entryDx=0;entryDy=0;endArrow=blockThin;endFill=1;" parent="WIyWlLk6GJQsqaUBKTNV-1" source="keg-BaF5ITObghMRIlcJ-20" target="keg-BaF5ITObghMRIlcJ-22" edge="1">
          <mxGeometry relative="1" as="geometry" />
        </mxCell>
        <mxCell id="keg-BaF5ITObghMRIlcJ-20" value="Statistik ansehen?" style="strokeWidth=2;html=1;shape=mxgraph.flowchart.decision;whiteSpace=wrap;aspect=fixed;" parent="WIyWlLk6GJQsqaUBKTNV-1" vertex="1">
          <mxGeometry x="265.5" y="2171" width="89" height="89" as="geometry" />
        </mxCell>
        <mxCell id="keg-BaF5ITObghMRIlcJ-52" style="edgeStyle=orthogonalEdgeStyle;rounded=0;orthogonalLoop=1;jettySize=auto;html=1;entryX=0;entryY=0.5;entryDx=0;entryDy=0;endArrow=blockThin;endFill=1;" parent="WIyWlLk6GJQsqaUBKTNV-1" source="keg-BaF5ITObghMRIlcJ-21" target="keg-BaF5ITObghMRIlcJ-25" edge="1">
          <mxGeometry relative="1" as="geometry" />
        </mxCell>
        <mxCell id="keg-BaF5ITObghMRIlcJ-21" value="weiter&lt;span style=&quot;background-color: transparent; color: light-dark(rgb(0, 0, 0), rgb(255, 255, 255));&quot;&gt;&amp;nbsp;&lt;/span&gt;&lt;div&gt;spielen?&lt;/div&gt;" style="strokeWidth=2;html=1;shape=mxgraph.flowchart.decision;whiteSpace=wrap;aspect=fixed;" parent="WIyWlLk6GJQsqaUBKTNV-1" vertex="1">
          <mxGeometry x="265.5" y="2440" width="89" height="89" as="geometry" />
        </mxCell>
        <mxCell id="keg-BaF5ITObghMRIlcJ-22" value="&quot;Spiel pausieren&quot; sagen" style="rounded=1;whiteSpace=wrap;html=1;absoluteArcSize=1;arcSize=14;strokeWidth=2;" parent="WIyWlLk6GJQsqaUBKTNV-1" vertex="1">
          <mxGeometry x="260" y="2320" width="100" height="60" as="geometry" />
        </mxCell>
        <mxCell id="keg-BaF5ITObghMRIlcJ-25" value="&quot;Spielen&quot; sagen" style="rounded=1;whiteSpace=wrap;html=1;absoluteArcSize=1;arcSize=14;strokeWidth=2;" parent="WIyWlLk6GJQsqaUBKTNV-1" vertex="1">
          <mxGeometry x="419" y="2454.5" width="100" height="60" as="geometry" />
        </mxCell>
        <mxCell id="keg-BaF5ITObghMRIlcJ-26" style="edgeStyle=orthogonalEdgeStyle;rounded=0;orthogonalLoop=1;jettySize=auto;html=1;entryX=0.5;entryY=0;entryDx=0;entryDy=0;entryPerimeter=0;endArrow=blockThin;endFill=1;" parent="WIyWlLk6GJQsqaUBKTNV-1" source="IYIC5ttq0z-l40l8aOWY-0" target="IYIC5ttq0z-l40l8aOWY-4" edge="1">
          <mxGeometry relative="1" as="geometry" />
        </mxCell>
        <mxCell id="keg-BaF5ITObghMRIlcJ-27" style="edgeStyle=orthogonalEdgeStyle;rounded=0;orthogonalLoop=1;jettySize=auto;html=1;entryX=0;entryY=0.5;entryDx=0;entryDy=0;endArrow=blockThin;endFill=1;" parent="WIyWlLk6GJQsqaUBKTNV-1" source="IYIC5ttq0z-l40l8aOWY-4" target="IYIC5ttq0z-l40l8aOWY-3" edge="1">
          <mxGeometry relative="1" as="geometry" />
        </mxCell>
        <mxCell id="keg-BaF5ITObghMRIlcJ-28" style="edgeStyle=orthogonalEdgeStyle;rounded=0;orthogonalLoop=1;jettySize=auto;html=1;endArrow=blockThin;endFill=1;" parent="WIyWlLk6GJQsqaUBKTNV-1" source="IYIC5ttq0z-l40l8aOWY-4" edge="1">
          <mxGeometry relative="1" as="geometry">
            <mxPoint x="160" y="300" as="targetPoint" />
          </mxGeometry>
        </mxCell>
        <mxCell id="keg-BaF5ITObghMRIlcJ-29" style="edgeStyle=orthogonalEdgeStyle;rounded=0;orthogonalLoop=1;jettySize=auto;html=1;entryX=0.5;entryY=0;entryDx=0;entryDy=0;entryPerimeter=0;endArrow=blockThin;endFill=1;" parent="WIyWlLk6GJQsqaUBKTNV-1" source="IYIC5ttq0z-l40l8aOWY-5" target="keg-BaF5ITObghMRIlcJ-0" edge="1">
          <mxGeometry relative="1" as="geometry" />
        </mxCell>
        <mxCell id="keg-BaF5ITObghMRIlcJ-32" style="edgeStyle=orthogonalEdgeStyle;rounded=0;orthogonalLoop=1;jettySize=auto;html=1;entryX=0.5;entryY=0;entryDx=0;entryDy=0;entryPerimeter=0;endArrow=blockThin;endFill=1;" parent="WIyWlLk6GJQsqaUBKTNV-1" source="keg-BaF5ITObghMRIlcJ-13" target="keg-BaF5ITObghMRIlcJ-8" edge="1">
          <mxGeometry relative="1" as="geometry" />
        </mxCell>
        <mxCell id="keg-BaF5ITObghMRIlcJ-33" style="edgeStyle=orthogonalEdgeStyle;rounded=0;orthogonalLoop=1;jettySize=auto;html=1;entryX=0;entryY=0.5;entryDx=0;entryDy=0;entryPerimeter=0;endArrow=blockThin;endFill=1;" parent="WIyWlLk6GJQsqaUBKTNV-1" source="keg-BaF5ITObghMRIlcJ-8" target="keg-BaF5ITObghMRIlcJ-14" edge="1">
          <mxGeometry relative="1" as="geometry" />
        </mxCell>
        <mxCell id="keg-BaF5ITObghMRIlcJ-37" style="edgeStyle=orthogonalEdgeStyle;rounded=0;orthogonalLoop=1;jettySize=auto;html=1;entryX=0.5;entryY=0;entryDx=0;entryDy=0;entryPerimeter=0;endArrow=blockThin;endFill=1;" parent="WIyWlLk6GJQsqaUBKTNV-1" source="IYIC5ttq0z-l40l8aOWY-8" target="IYIC5ttq0z-l40l8aOWY-9" edge="1">
          <mxGeometry relative="1" as="geometry" />
        </mxCell>
        <mxCell id="keg-BaF5ITObghMRIlcJ-39" style="edgeStyle=orthogonalEdgeStyle;rounded=0;orthogonalLoop=1;jettySize=auto;html=1;entryX=0;entryY=0.5;entryDx=0;entryDy=0;entryPerimeter=0;endArrow=blockThin;endFill=1;" parent="WIyWlLk6GJQsqaUBKTNV-1" source="keg-BaF5ITObghMRIlcJ-3" target="IYIC5ttq0z-l40l8aOWY-10" edge="1">
          <mxGeometry relative="1" as="geometry" />
        </mxCell>
        <mxCell id="keg-BaF5ITObghMRIlcJ-40" style="edgeStyle=orthogonalEdgeStyle;rounded=0;orthogonalLoop=1;jettySize=auto;html=1;entryX=0;entryY=0.5;entryDx=0;entryDy=0;entryPerimeter=0;endArrow=blockThin;endFill=1;" parent="WIyWlLk6GJQsqaUBKTNV-1" source="IYIC5ttq0z-l40l8aOWY-10" target="keg-BaF5ITObghMRIlcJ-15" edge="1">
          <mxGeometry relative="1" as="geometry" />
        </mxCell>
        <mxCell id="keg-BaF5ITObghMRIlcJ-42" style="edgeStyle=orthogonalEdgeStyle;rounded=0;orthogonalLoop=1;jettySize=auto;html=1;entryX=0.5;entryY=0;entryDx=0;entryDy=0;entryPerimeter=0;endArrow=blockThin;endFill=1;" parent="WIyWlLk6GJQsqaUBKTNV-1" source="keg-BaF5ITObghMRIlcJ-7" target="keg-BaF5ITObghMRIlcJ-10" edge="1">
          <mxGeometry relative="1" as="geometry" />
        </mxCell>
        <mxCell id="keg-BaF5ITObghMRIlcJ-43" style="edgeStyle=orthogonalEdgeStyle;rounded=0;orthogonalLoop=1;jettySize=auto;html=1;entryX=0;entryY=0.5;entryDx=0;entryDy=0;entryPerimeter=0;endArrow=blockThin;endFill=1;" parent="WIyWlLk6GJQsqaUBKTNV-1" source="keg-BaF5ITObghMRIlcJ-10" target="keg-BaF5ITObghMRIlcJ-17" edge="1">
          <mxGeometry relative="1" as="geometry" />
        </mxCell>
        <mxCell id="keg-BaF5ITObghMRIlcJ-44" style="edgeStyle=orthogonalEdgeStyle;rounded=0;orthogonalLoop=1;jettySize=auto;html=1;entryX=0.5;entryY=0;entryDx=0;entryDy=0;entryPerimeter=0;endArrow=blockThin;endFill=1;" parent="WIyWlLk6GJQsqaUBKTNV-1" source="keg-BaF5ITObghMRIlcJ-10" target="keg-BaF5ITObghMRIlcJ-16" edge="1">
          <mxGeometry relative="1" as="geometry" />
        </mxCell>
        <mxCell id="keg-BaF5ITObghMRIlcJ-49" style="edgeStyle=orthogonalEdgeStyle;rounded=0;orthogonalLoop=1;jettySize=auto;html=1;entryX=0.5;entryY=0;entryDx=0;entryDy=0;entryPerimeter=0;endArrow=blockThin;endFill=1;" parent="WIyWlLk6GJQsqaUBKTNV-1" source="keg-BaF5ITObghMRIlcJ-19" target="keg-BaF5ITObghMRIlcJ-20" edge="1">
          <mxGeometry relative="1" as="geometry" />
        </mxCell>
        <mxCell id="keg-BaF5ITObghMRIlcJ-51" style="edgeStyle=orthogonalEdgeStyle;rounded=0;orthogonalLoop=1;jettySize=auto;html=1;entryX=0.5;entryY=0;entryDx=0;entryDy=0;entryPerimeter=0;endArrow=blockThin;endFill=1;" parent="WIyWlLk6GJQsqaUBKTNV-1" source="keg-BaF5ITObghMRIlcJ-22" target="keg-BaF5ITObghMRIlcJ-21" edge="1">
          <mxGeometry relative="1" as="geometry" />
        </mxCell>
        <mxCell id="keg-BaF5ITObghMRIlcJ-53" style="edgeStyle=orthogonalEdgeStyle;rounded=0;orthogonalLoop=1;jettySize=auto;html=1;entryX=0.5;entryY=0;entryDx=0;entryDy=0;entryPerimeter=0;endArrow=blockThin;endFill=1;" parent="WIyWlLk6GJQsqaUBKTNV-1" source="keg-BaF5ITObghMRIlcJ-21" target="keg-BaF5ITObghMRIlcJ-24" edge="1">
          <mxGeometry relative="1" as="geometry" />
        </mxCell>
        <mxCell id="keg-BaF5ITObghMRIlcJ-54" style="edgeStyle=orthogonalEdgeStyle;rounded=0;orthogonalLoop=1;jettySize=auto;html=1;entryX=0.5;entryY=0;entryDx=0;entryDy=0;entryPerimeter=0;endArrow=blockThin;endFill=1;" parent="WIyWlLk6GJQsqaUBKTNV-1" source="IYIC5ttq0z-l40l8aOWY-9" target="keg-BaF5ITObghMRIlcJ-7" edge="1">
          <mxGeometry relative="1" as="geometry" />
        </mxCell>
        <mxCell id="keg-BaF5ITObghMRIlcJ-56" value="" style="endArrow=none;html=1;rounded=0;edgeStyle=orthogonalEdgeStyle;entryX=0.508;entryY=0.996;entryDx=0;entryDy=0;entryPerimeter=0;" parent="WIyWlLk6GJQsqaUBKTNV-1" target="keg-BaF5ITObghMRIlcJ-5" edge="1">
          <mxGeometry width="50" height="50" relative="1" as="geometry">
            <mxPoint x="160" y="1440" as="sourcePoint" />
            <mxPoint x="390" y="1410" as="targetPoint" />
          </mxGeometry>
        </mxCell>
        <mxCell id="llLLKXH0NYCwtLzDo8_0-1" value="" style="edgeStyle=orthogonalEdgeStyle;orthogonalLoop=1;jettySize=auto;html=1;rounded=0;exitX=0.5;exitY=1;exitDx=0;exitDy=0;endArrow=none;endFill=0;" parent="WIyWlLk6GJQsqaUBKTNV-1" source="keg-BaF5ITObghMRIlcJ-12" edge="1">
          <mxGeometry width="80" relative="1" as="geometry">
            <mxPoint x="85.5" y="2034.5" as="sourcePoint" />
            <mxPoint x="160" y="930" as="targetPoint" />
            <Array as="points">
              <mxPoint x="160" y="2040" />
              <mxPoint x="40" y="2040" />
              <mxPoint x="40" y="930" />
            </Array>
          </mxGeometry>
        </mxCell>
        <mxCell id="llLLKXH0NYCwtLzDo8_0-3" value="" style="endArrow=none;html=1;rounded=0;edgeStyle=orthogonalEdgeStyle;entryX=0.5;entryY=1;entryDx=0;entryDy=0;" parent="WIyWlLk6GJQsqaUBKTNV-1" target="IYIC5ttq0z-l40l8aOWY-3" edge="1">
          <mxGeometry width="50" height="50" relative="1" as="geometry">
            <mxPoint x="160" y="270" as="sourcePoint" />
            <mxPoint x="440" y="300" as="targetPoint" />
          </mxGeometry>
        </mxCell>
        <mxCell id="llLLKXH0NYCwtLzDo8_0-5" value="" style="endArrow=none;html=1;rounded=0;edgeStyle=orthogonalEdgeStyle;entryX=0.5;entryY=1;entryDx=0;entryDy=0;" parent="WIyWlLk6GJQsqaUBKTNV-1" target="keg-BaF5ITObghMRIlcJ-1" edge="1">
          <mxGeometry width="50" height="50" relative="1" as="geometry">
            <mxPoint x="160" y="540" as="sourcePoint" />
            <mxPoint x="320" y="494.5" as="targetPoint" />
          </mxGeometry>
        </mxCell>
        <mxCell id="llLLKXH0NYCwtLzDo8_0-6" value="" style="orthogonalLoop=1;jettySize=auto;html=1;rounded=0;endArrow=none;endFill=0;entryX=0;entryY=0.5;entryDx=0;entryDy=0;entryPerimeter=0;" parent="WIyWlLk6GJQsqaUBKTNV-1" edge="1">
          <mxGeometry width="80" relative="1" as="geometry">
            <mxPoint x="40" y="1524" as="sourcePoint" />
            <mxPoint x="115" y="1524.5" as="targetPoint" />
          </mxGeometry>
        </mxCell>
        <mxCell id="llLLKXH0NYCwtLzDo8_0-7" value="" style="endArrow=none;html=1;rounded=0;edgeStyle=orthogonalEdgeStyle;exitX=0.5;exitY=0;exitDx=0;exitDy=0;" parent="WIyWlLk6GJQsqaUBKTNV-1" source="keg-BaF5ITObghMRIlcJ-25" edge="1">
          <mxGeometry width="50" height="50" relative="1" as="geometry">
            <mxPoint x="490" y="2000" as="sourcePoint" />
            <mxPoint x="310" y="1900" as="targetPoint" />
            <Array as="points">
              <mxPoint x="469" y="1900" />
            </Array>
          </mxGeometry>
        </mxCell>
        <mxCell id="llLLKXH0NYCwtLzDo8_0-9" value="" style="endArrow=none;html=1;rounded=0;exitX=1;exitY=0.5;exitDx=0;exitDy=0;exitPerimeter=0;" parent="WIyWlLk6GJQsqaUBKTNV-1" source="keg-BaF5ITObghMRIlcJ-20" edge="1">
          <mxGeometry width="50" height="50" relative="1" as="geometry">
            <mxPoint x="210" y="2260" as="sourcePoint" />
            <mxPoint x="469" y="2215" as="targetPoint" />
          </mxGeometry>
        </mxCell>
        <mxCell id="llLLKXH0NYCwtLzDo8_0-10" value="ja" style="text;html=1;align=center;verticalAlign=middle;resizable=0;points=[];autosize=1;strokeColor=none;fillColor=none;" parent="WIyWlLk6GJQsqaUBKTNV-1" vertex="1">
          <mxGeometry x="160" y="240" width="30" height="30" as="geometry" />
        </mxCell>
        <mxCell id="llLLKXH0NYCwtLzDo8_0-11" value="nein" style="text;html=1;align=center;verticalAlign=middle;resizable=0;points=[];autosize=1;strokeColor=none;fillColor=none;" parent="WIyWlLk6GJQsqaUBKTNV-1" vertex="1">
          <mxGeometry x="200" y="170.5" width="50" height="30" as="geometry" />
        </mxCell>
        <mxCell id="llLLKXH0NYCwtLzDo8_0-12" value="ja" style="text;html=1;align=center;verticalAlign=middle;resizable=0;points=[];autosize=1;strokeColor=none;fillColor=none;" parent="WIyWlLk6GJQsqaUBKTNV-1" vertex="1">
          <mxGeometry x="200" y="434.5" width="30" height="30" as="geometry" />
        </mxCell>
        <mxCell id="llLLKXH0NYCwtLzDo8_0-13" value="nein" style="text;html=1;align=center;verticalAlign=middle;resizable=0;points=[];autosize=1;strokeColor=none;fillColor=none;" parent="WIyWlLk6GJQsqaUBKTNV-1" vertex="1">
          <mxGeometry x="160" y="500" width="50" height="30" as="geometry" />
        </mxCell>
        <mxCell id="llLLKXH0NYCwtLzDo8_0-14" value="nein" style="text;html=1;align=center;verticalAlign=middle;resizable=0;points=[];autosize=1;strokeColor=none;fillColor=none;" parent="WIyWlLk6GJQsqaUBKTNV-1" vertex="1">
          <mxGeometry x="200" y="704.5" width="50" height="30" as="geometry" />
        </mxCell>
        <mxCell id="llLLKXH0NYCwtLzDo8_0-15" value="ja" style="text;html=1;align=center;verticalAlign=middle;resizable=0;points=[];autosize=1;strokeColor=none;fillColor=none;" parent="WIyWlLk6GJQsqaUBKTNV-1" vertex="1">
          <mxGeometry x="160" y="770" width="30" height="30" as="geometry" />
        </mxCell>
        <mxCell id="llLLKXH0NYCwtLzDo8_0-16" value="ja" style="text;html=1;align=center;verticalAlign=middle;resizable=0;points=[];autosize=1;strokeColor=none;fillColor=none;" parent="WIyWlLk6GJQsqaUBKTNV-1" vertex="1">
          <mxGeometry x="200" y="1215.5" width="30" height="30" as="geometry" />
        </mxCell>
        <mxCell id="llLLKXH0NYCwtLzDo8_0-17" value="ja" style="text;html=1;align=center;verticalAlign=middle;resizable=0;points=[];autosize=1;strokeColor=none;fillColor=none;" parent="WIyWlLk6GJQsqaUBKTNV-1" vertex="1">
          <mxGeometry x="470" y="1275.5" width="30" height="30" as="geometry" />
        </mxCell>
        <mxCell id="llLLKXH0NYCwtLzDo8_0-18" value="nein" style="text;html=1;align=center;verticalAlign=middle;resizable=0;points=[];autosize=1;strokeColor=none;fillColor=none;" parent="WIyWlLk6GJQsqaUBKTNV-1" vertex="1">
          <mxGeometry x="500" y="1215.5" width="50" height="30" as="geometry" />
        </mxCell>
        <mxCell id="llLLKXH0NYCwtLzDo8_0-19" value="nein" style="text;html=1;align=center;verticalAlign=middle;resizable=0;points=[];autosize=1;strokeColor=none;fillColor=none;" parent="WIyWlLk6GJQsqaUBKTNV-1" vertex="1">
          <mxGeometry x="160" y="1275.5" width="50" height="30" as="geometry" />
        </mxCell>
        <mxCell id="llLLKXH0NYCwtLzDo8_0-20" value="nein" style="text;html=1;align=center;verticalAlign=middle;resizable=0;points=[];autosize=1;strokeColor=none;fillColor=none;" parent="WIyWlLk6GJQsqaUBKTNV-1" vertex="1">
          <mxGeometry x="80" y="1490" width="50" height="30" as="geometry" />
        </mxCell>
        <mxCell id="llLLKXH0NYCwtLzDo8_0-21" value="nein" style="text;html=1;align=center;verticalAlign=middle;resizable=0;points=[];autosize=1;strokeColor=none;fillColor=none;" parent="WIyWlLk6GJQsqaUBKTNV-1" vertex="1">
          <mxGeometry x="190" y="1644.5" width="50" height="30" as="geometry" />
        </mxCell>
        <mxCell id="llLLKXH0NYCwtLzDo8_0-22" value="nein" style="text;html=1;align=center;verticalAlign=middle;resizable=0;points=[];autosize=1;strokeColor=none;fillColor=none;" parent="WIyWlLk6GJQsqaUBKTNV-1" vertex="1">
          <mxGeometry x="160" y="1854.5" width="50" height="30" as="geometry" />
        </mxCell>
        <mxCell id="llLLKXH0NYCwtLzDo8_0-23" value="ja" style="text;html=1;align=center;verticalAlign=middle;resizable=0;points=[];autosize=1;strokeColor=none;fillColor=none;" parent="WIyWlLk6GJQsqaUBKTNV-1" vertex="1">
          <mxGeometry x="190" y="1794.5" width="30" height="30" as="geometry" />
        </mxCell>
        <mxCell id="llLLKXH0NYCwtLzDo8_0-24" value="ja" style="text;html=1;align=center;verticalAlign=middle;resizable=0;points=[];autosize=1;strokeColor=none;fillColor=none;" parent="WIyWlLk6GJQsqaUBKTNV-1" vertex="1">
          <mxGeometry x="160" y="1704.5" width="30" height="30" as="geometry" />
        </mxCell>
        <mxCell id="llLLKXH0NYCwtLzDo8_0-25" value="ja" style="text;html=1;align=center;verticalAlign=middle;resizable=0;points=[];autosize=1;strokeColor=none;fillColor=none;" parent="WIyWlLk6GJQsqaUBKTNV-1" vertex="1">
          <mxGeometry x="160" y="1560" width="30" height="30" as="geometry" />
        </mxCell>
        <mxCell id="llLLKXH0NYCwtLzDo8_0-26" value="ja" style="text;html=1;align=center;verticalAlign=middle;resizable=0;points=[];autosize=1;strokeColor=none;fillColor=none;" parent="WIyWlLk6GJQsqaUBKTNV-1" vertex="1">
          <mxGeometry x="310" y="2250" width="30" height="30" as="geometry" />
        </mxCell>
        <mxCell id="llLLKXH0NYCwtLzDo8_0-27" value="ja" style="text;html=1;align=center;verticalAlign=middle;resizable=0;points=[];autosize=1;strokeColor=none;fillColor=none;" parent="WIyWlLk6GJQsqaUBKTNV-1" vertex="1">
          <mxGeometry x="350" y="2454.5" width="30" height="30" as="geometry" />
        </mxCell>
        <mxCell id="llLLKXH0NYCwtLzDo8_0-28" value="nein" style="text;html=1;align=center;verticalAlign=middle;resizable=0;points=[];autosize=1;strokeColor=none;fillColor=none;" parent="WIyWlLk6GJQsqaUBKTNV-1" vertex="1">
          <mxGeometry x="304.5" y="2520" width="50" height="30" as="geometry" />
        </mxCell>
        <mxCell id="llLLKXH0NYCwtLzDo8_0-29" value="nein" style="text;html=1;align=center;verticalAlign=middle;resizable=0;points=[];autosize=1;strokeColor=none;fillColor=none;" parent="WIyWlLk6GJQsqaUBKTNV-1" vertex="1">
          <mxGeometry x="340" y="2190" width="50" height="30" as="geometry" />
        </mxCell>
      </root>
    </mxGraphModel>
  </diagram>
</mxfile>
